<?xml version="1.0" encoding="UTF-8"?>
<svg id="Layer_2" xmlns="http://www.w3.org/2000/svg" viewBox="0 0 44.57 13.78">
  <defs>
    <style>
      .cls-1 {
        fill: #5fa8dc;
      }

      .cls-2 {
        fill: #2e368e;
      }
    </style>
  </defs>
  <g id="layout">
    <g id="Layer_1-2" data-name="Layer_1">
      <g>
        <path class="cls-2" d="M8.32,10.44H3.52l-.95,3.33H0L4.28,0h3.46l4.26,13.77h-2.74l-.95-3.33h0ZM7.76,8.45l-1.83-6.38-1.83,6.38h3.67Z"/>
        <path class="cls-2" d="M12.75,0h2.46v13.77h-2.46V0Z"/>
        <path class="cls-2" d="M20.02,5.95v4.49c0,.87.56,1.38,1.49,1.38s.91-.11,1.25-.3v1.83c-.56.26-1.32.43-2.03.43-1.99,0-3.17-1.12-3.17-3.01v-4.8h-1.6v-1.69h6.8v1.69h-2.74Z"/>
        <rect class="cls-2" x="23.5" y="4.26" width="2.46" height="9.51"/>
        <path class="cls-2" d="M35.32,4.26v9.51h-2.46v-3.48h-.04c0,2.18-1.08,3.48-2.92,3.48s-3.2-1.43-3.2-3.84v-5.68h2.46v5.57c0,1.27.65,1.99,1.75,1.99s1.96-.93,1.96-2.53v-5.02h2.46,0Z"/>
        <path class="cls-2" d="M36.07,10.55h2.29c0,1.05.73,1.65,1.96,1.65s1.88-.45,1.88-1.23-1.1-1.17-2.32-1.38c-1.62-.26-3.55-.62-3.55-2.53s1.49-2.83,4-2.83,3.98,1.14,3.98,3.07h-2.29c0-.98-.61-1.54-1.69-1.54s-1.64.41-1.64,1.1,1.02,1.06,2.21,1.26c1.65.28,3.67.38,3.67,2.57s-1.58,3.07-4.24,3.07-4.24-1.19-4.24-3.22h-.01Z"/>
        <path class="cls-1" d="M20.19,3.52h-2.45c0-1.29,1.04-2.32,2.32-2.32h.13v2.32Z"/>
        <path class="cls-1" d="M23.57,1.19h2.45c0,1.29-1.04,2.32-2.32,2.32h-.13V1.19Z"/>
      </g>
    </g>
  </g>
</svg>